<svg xmlns="http://www.w3.org/2000/svg" xmlns:xlink="http://www.w3.org/1999/xlink" width="367" height="406.94" viewBox="0 0 367 406.94">
  <defs>
    <linearGradient id="linear-gradient" x1="68.83" y1="203.47" x2="298.17" y2="203.47" gradientUnits="userSpaceOnUse">
      <stop offset="0" stop-color="#ffa04d"/>
      <stop offset="1" stop-color="#c852ff"/>
    </linearGradient>
  </defs>
  <g id="Layer_2" data-name="Layer 2">
    <g id="Layer_4" data-name="Layer 4">
      <g>
        <rect width="367" height="406.94" rx="21.94" fill="#1a2c54"/>
        <rect x="13" y="12.49" width="341" height="381.96" rx="21.94" fill="#fcfefd"/>
        <rect x="41" y="28.47" width="285" height="350" rx="21.94" fill="#1a2c54"/>
        <path d="M86.46,271.85a32.65,32.65,0,0,0,9.48-1.74,77.09,77.09,0,0,0,11.4-4.7,95.51,95.51,0,0,0,12-7.17,93.4,93.4,0,0,0,9.94-8A63.12,63.12,0,0,0,151.89,267a76.39,76.39,0,0,0,61.23.39,71.07,71.07,0,0,0,23.56-17A75.52,75.52,0,0,0,247,258.65a95.36,95.36,0,0,0,12.45,7.07,81.29,81.29,0,0,0,11.69,4.5,34.92,34.92,0,0,0,9.57,1.63c7.69-.14,13-3.56,15.72-10.2,1.65-4.26,2.11-9.81,1.36-16.51a116.36,116.36,0,0,0-4.66-21.35,214.33,214.33,0,0,0-9-23.6c-3.6-8-7.47-15.84-11.53-23.24a231,231,0,0,0-12.33-20.13,106.65,106.65,0,0,0-11.47-14.25c-6.42-6.13-13.63-9.24-21.45-9.24a26.39,26.39,0,0,0-11.34,2.5,24.94,24.94,0,0,0-9.07,7.28c-3.42,4.21-7.38,9.23-11.78,14.92-4,5.17-7.92,10.6-11.69,16.18-2.87-4.4-6.15-9-9.79-13.73-4.19-5.43-8.82-11.28-13.73-17.35a25,25,0,0,0-9.08-7.31,26.53,26.53,0,0,0-11.34-2.49c-7.82,0-15,3.11-21.47,9.27a106.11,106.11,0,0,0-11.45,14.22A233.71,233.71,0,0,0,94.33,177c-4.06,7.4-7.94,15.22-11.52,23.24a212.67,212.67,0,0,0-9,23.6,116,116,0,0,0-4.66,21.36c-.74,6.71-.21,12.27,1.57,16.52C73.32,268.14,78.53,271.56,86.46,271.85Zm53.12-133.1a19.89,19.89,0,0,1,8.92,2.09,23.49,23.49,0,0,1,7.34,5.78,399.51,399.51,0,0,1,24.44,32.75c-9.42,14.6-14,25.57-14,33.51,0,5.94,1.83,10.49,5.45,13.52A18.56,18.56,0,0,0,183.77,231a17.53,17.53,0,0,0,11.49-4.38c3.62-3,5.45-7.66,5.45-13.72,0-7.81-4.53-18.78-13.83-33.52,3.86-6.05,8-12,12.34-17.59,4.51-5.87,8.59-11,12.1-15.13a23.65,23.65,0,0,1,7.27-5.8,19.13,19.13,0,0,1,8.81-2.09c6.47,0,12.37,2.62,17.53,7.79a101.13,101.13,0,0,1,11,13.61,225.81,225.81,0,0,1,12,19.37c4,7.11,7.72,14.66,11.21,22.42a213.25,213.25,0,0,1,8.76,22.67,108.23,108.23,0,0,1,4.55,20.29c.68,6.06.28,11-1.19,14.66-1.72,4.49-5.16,6.66-10.71,6.66a31.15,31.15,0,0,1-8.11-1.41,66.67,66.67,0,0,1-10.83-4.22,102.91,102.91,0,0,1-11.68-6.66,67.51,67.51,0,0,1-9.63-7.64,61.51,61.51,0,0,0,8.32-13.17,39.68,39.68,0,0,0,3.47-16.72,14.72,14.72,0,0,0-2.42-8.51,15.45,15.45,0,0,0-6-5.22,18.78,18.78,0,0,0-7.69-1.82h-.47a16.57,16.57,0,0,0-7.29,1.63,15.35,15.35,0,0,0-6,5.21,15.07,15.07,0,0,0-2.43,8.71,31.52,31.52,0,0,0,1.24,8.66,53.24,53.24,0,0,0,3.13,8.27,48.26,48.26,0,0,0,4.45,7.59c1.36,1.91,2.77,3.74,4.2,5.45a66.2,66.2,0,0,1-21.91,16,67.85,67.85,0,0,1-28,5.84,68.62,68.62,0,0,1-28.76-6.13,58,58,0,0,1-21-15.8,74.37,74.37,0,0,0,9.13-13,34.35,34.35,0,0,0,4.31-16.82c0-5.26-1.66-9.41-4.93-12.32a16.9,16.9,0,0,0-10.76-4.5h-.59a15.6,15.6,0,0,0-10.26,3.9c-3.29,2.78-5,7.13-5,12.93a41.39,41.39,0,0,0,3.16,16.08,68.91,68.91,0,0,0,7.53,13.36,76.36,76.36,0,0,1-9.82,8,94.91,94.91,0,0,1-11.48,6.75,70.07,70.07,0,0,1-10.44,4.22,28,28,0,0,1-7.79,1.4c-5.24,0-8.69-2.19-10.53-6.68-1.47-3.66-1.86-8.59-1.18-14.64a108.58,108.58,0,0,1,4.55-20.29,213.25,213.25,0,0,1,8.76-22.67c3.5-7.78,7.27-15.32,11.21-22.42a223.33,223.33,0,0,1,12-19.37,101.93,101.93,0,0,1,11-13.59C127.45,141.38,133.36,138.75,139.58,138.75Zm54,81.35a11.54,11.54,0,0,1-4.33,4.16,11.14,11.14,0,0,1-5.32,1.3h-.38a12.88,12.88,0,0,1-5.78-1.49,11.47,11.47,0,0,1-4.33-4.16,13.13,13.13,0,0,1-1.72-7c0-6.27,4-15.84,11.79-28.47,7.83,12.64,11.79,22.21,11.79,28.47A13.58,13.58,0,0,1,193.56,220.1Zm35-11.39a11.34,11.34,0,0,1,7.11-2.43v-1.52h0l.26,1.52a11.73,11.73,0,0,1,7.39,2.79,8.85,8.85,0,0,1,3.16,7.33,34.67,34.67,0,0,1-3,14.46,59.76,59.76,0,0,1-6.91,11.38,59.4,59.4,0,0,1-7.39-11.07,31.45,31.45,0,0,1-3.74-14.77C225.41,212.83,226.43,210.31,228.52,208.71Zm-104.69-1.14a9.33,9.33,0,0,1,6.29-2.49l.64,0a11.4,11.4,0,0,1,7.1,3.22c2.1,1.94,3.13,4.59,3.13,8.08a30.55,30.55,0,0,1-3.55,14.38,54.8,54.8,0,0,1-7.67,11,68.74,68.74,0,0,1-6.31-11.57,35.41,35.41,0,0,1-2.72-13.82C120.74,212.32,121.78,209.35,123.83,207.57Z" fill="url(#linear-gradient)"/>
      </g>
    </g>
  </g>
</svg>
