<svg xmlns="http://www.w3.org/2000/svg" width="367" height="406.9" viewBox="0 0 367 407"><defs><linearGradient id="a" x1="68.8" y1="203.5" x2="298.2" y2="203.5" gradientUnits="userSpaceOnUse"><stop offset="0" stop-color="#ffa04d"/><stop offset="1" stop-color="#c852ff"/></linearGradient></defs><g data-name="Layer 2"><g data-name="Layer 4"><rect width="367" height="406.9" rx="21.9" fill="#1a2c54"/><rect x="13" y="13" width="341" height="382" rx="21.9" fill="#fcfefd"/><rect x="41" y="29" width="285" height="350" rx="21.9" fill="#1a2c54"/><path d="M86 272a33 33 0 0 0 10-2 77 77 0 0 0 11-5 96 96 0 0 0 12-7 93 93 0 0 0 10-8 63 63 0 0 0 23 17 76 76 0 0 0 61 0 71 71 0 0 0 24-17 76 76 0 0 0 10 9 95 95 0 0 0 12 7 81 81 0 0 0 12 4 35 35 0 0 0 10 2c7 0 13-4 15-10 2-5 3-10 2-17a116 116 0 0 0-5-21 214 214 0 0 0-9-24l-11-23a231 231 0 0 0-13-20 107 107 0 0 0-11-14c-7-7-14-10-22-10a26 26 0 0 0-11 3 25 25 0 0 0-9 7 810 810 0 0 0-24 31 218 218 0 0 0-23-31 25 25 0 0 0-9-7 27 27 0 0 0-11-3c-8 0-15 3-22 10a106 106 0 0 0-11 14 234 234 0 0 0-13 20l-11 23a213 213 0 0 0-9 24 116 116 0 0 0-5 21c-1 7 0 12 2 17 2 6 8 10 15 10Zm54-133a20 20 0 0 1 8 2 23 23 0 0 1 8 6 400 400 0 0 1 24 32c-9 15-14 26-14 34 0 6 2 10 6 13a19 19 0 0 0 12 5 18 18 0 0 0 11-4c4-3 6-8 6-14 0-8-5-19-14-34a234 234 0 0 1 24-32 24 24 0 0 1 8-6 19 19 0 0 1 8-2c7 0 13 2 18 8a101 101 0 0 1 11 13 226 226 0 0 1 12 20l11 22a213 213 0 0 1 9 23 108 108 0 0 1 4 20c1 6 1 11-1 15-1 4-5 6-10 6a31 31 0 0 1-9-1 67 67 0 0 1-10-4 103 103 0 0 1-12-7 68 68 0 0 1-10-8 62 62 0 0 0 9-13 40 40 0 0 0 3-17 15 15 0 0 0-2-8 15 15 0 0 0-6-5 19 19 0 0 0-8-2 17 17 0 0 0-8 2 15 15 0 0 0-6 5 15 15 0 0 0-2 8 32 32 0 0 0 1 9 53 53 0 0 0 3 8 48 48 0 0 0 5 8l4 5a66 66 0 0 1-22 16 68 68 0 0 1-28 6 69 69 0 0 1-29-6 58 58 0 0 1-21-16 74 74 0 0 0 9-13 34 34 0 0 0 5-17c0-5-2-9-5-12a17 17 0 0 0-11-4h-1a16 16 0 0 0-10 4c-3 2-5 7-5 12a41 41 0 0 0 3 17 69 69 0 0 0 8 13 76 76 0 0 1-10 8 95 95 0 0 1-12 7 70 70 0 0 1-10 4 28 28 0 0 1-8 1c-5 0-8-2-10-6s-2-9-2-15a109 109 0 0 1 5-20 213 213 0 0 1 9-23l11-22a223 223 0 0 1 12-20 102 102 0 0 1 11-13c5-6 11-8 18-8Zm54 81a12 12 0 0 1-5 4 11 11 0 0 1-5 2 13 13 0 0 1-6-2 11 11 0 0 1-5-4 13 13 0 0 1-1-7c0-6 4-16 12-29 7 13 11 23 11 29a14 14 0 0 1-1 7Zm35-11a11 11 0 0 1 7-3v-1 1a12 12 0 0 1 7 3 9 9 0 0 1 3 7 35 35 0 0 1-3 15 60 60 0 0 1-6 11 59 59 0 0 1-8-11 31 31 0 0 1-4-15c0-3 1-6 4-7Zm-105-1a9 9 0 0 1 6-3h1a11 11 0 0 1 7 3c2 2 3 5 3 8a31 31 0 0 1-4 15 55 55 0 0 1-7 11 69 69 0 0 1-6-12 35 35 0 0 1-3-14c0-4 1-7 3-8Z" fill="url(#a)"/></g></g></svg>