<svg xmlns="http://www.w3.org/2000/svg" width="461.86" height="217.47" viewBox="0 0 461.86 217.47">
  <g id="Layer_2" data-name="Layer 2">
    <g id="Layer_4" data-name="Layer 4">
      <g>
        <path d="M73.2,145.14c.65-.5,46.25-74.78,46.25-74.78C118.8,70.86,73.2,145.14,73.2,145.14Z" transform="translate(-0.23)" fill="#6cf5fb"/>
        <path d="M43.23,98.23C2.83,138.62.23,215.5.23,215.5c18.24-35.18,43-62.55,73-70.36,0,0,45.6-74.28,46.25-74.78C87.53,72.47,70.59,70.86,43.23,98.23Z" transform="translate(-0.23)" fill="#6cf5fb"/>
        <path d="M119.45,70.36s-45.6,74.28-46.25,74.78c31.92-2.11,48.86-.5,76.22-27.87C189.82,76.88,192.43,0,192.43,0,174.18,35.18,149.42,62.55,119.45,70.36Z" transform="translate(-0.23)" fill="#6cf5fb"/>
      </g>
      <g>
        <path d="M5,123.37v-19.1H89.38v19.1ZM36.79,215.9V104.27H57.54V215.9Z" transform="translate(-0.23)" fill="#015270"/>
        <path d="M96.54,215.9l32.23-111.63h25.47L186.47,215.9h-22.4l-21.86-84.36H140.8L118.94,215.9Zm16.27-21.15V175.57h56.6v19.18Z" transform="translate(-0.23)" fill="#015270"/>
        <path d="M232,217.47a104.73,104.73,0,0,1-18.48-1.61,79.12,79.12,0,0,1-16-4.52l2.83-21.23a106.53,106.53,0,0,0,17.17,5.58,70.62,70.62,0,0,0,15.77,2q8.4,0,12.89-3a9.68,9.68,0,0,0,4.48-8.57q0-7.31-9.2-11.63l-16-7.78Q213.52,160.87,207,152.3a30.56,30.56,0,0,1-6.53-19q0-14.62,9.67-22.64t27.36-8A53.14,53.14,0,0,1,257,106.31a49.8,49.8,0,0,1,16.39,10.46L259.11,133.2a46.32,46.32,0,0,0-10.93-8,23.42,23.42,0,0,0-10.61-2.79q-6.91,0-10.77,2.94T223,133.9a10.84,10.84,0,0,0,2.71,7,25.12,25.12,0,0,0,7.74,6l15.1,7.79q11.79,6.14,18.2,14.3a27.94,27.94,0,0,1,6.4,17.54q0,14.85-10.69,22.91T232,217.47Z" transform="translate(-0.23)" fill="#015270"/>
        <path d="M293.46,215.9V104.27h20.76V215.9Zm11.25-35.54,1.41-20.83q11.16,0,19.3-4.64a39.78,39.78,0,0,0,13.44-12.5,56.79,56.79,0,0,0,7.86-17.72,80.77,80.77,0,0,0,2.56-20.4h21.07a92.41,92.41,0,0,1-4.41,28.53,77.31,77.31,0,0,1-12.85,24.41,61.42,61.42,0,0,1-20.63,16.94A60.29,60.29,0,0,1,304.71,180.36Zm45.36,35.54-22.41-49.45,19.34-8,28.69,57.47Z" transform="translate(-0.23)" fill="#015270"/>
        <path d="M420.66,217.47a104.54,104.54,0,0,1-18.47-1.61,79.22,79.22,0,0,1-16-4.52L389,190.11a106.32,106.32,0,0,0,17.18,5.58,70.53,70.53,0,0,0,15.76,2q8.4,0,12.89-3a9.68,9.68,0,0,0,4.48-8.57q0-7.31-9.2-11.63l-16-7.78q-11.88-5.82-18.4-14.39a30.55,30.55,0,0,1-6.52-19q0-14.62,9.67-22.64t27.35-8a53.14,53.14,0,0,1,19.54,3.62,49.7,49.7,0,0,1,16.39,10.46L447.78,133.2a46.12,46.12,0,0,0-10.93-8,23.39,23.39,0,0,0-10.61-2.79q-6.92,0-10.77,2.94t-3.85,8.53a10.84,10.84,0,0,0,2.71,7,25.12,25.12,0,0,0,7.74,6l15.1,7.79Q449,160.8,455.37,169a27.94,27.94,0,0,1,6.4,17.54q0,14.85-10.69,22.91T420.66,217.47Z" transform="translate(-0.23)" fill="#015270"/>
      </g>
    </g>
  </g>
</svg>
