<svg xmlns="http://www.w3.org/2000/svg" width="461.9" height="217.5" viewBox="0 0 462 218"><g data-name="Layer 2"><g data-name="Layer 4"><g fill="#6cf5fb"><path d="m73 145 46-75-46 75ZM43 98C3 139 0 216 0 216c18-36 43-63 73-71l46-75c-32 2-49 1-76 28Z"/><path d="m119 70-46 75c32-2 49 0 76-28C190 77 192 0 192 0c-18 35-43 63-73 70Z"/></g><path d="M5 123v-19h84v19Zm32 93V104h20v112Zm59 0 33-112h25l32 112h-22l-22-84h-1l-22 84Zm17-21v-19h56v19Zm119 22a105 105 0 0 1-19-1 79 79 0 0 1-16-5l3-21a107 107 0 0 0 17 6 71 71 0 0 0 16 2q8 0 13-3a10 10 0 0 0 4-9q0-7-9-12l-16-7q-12-6-18-15a31 31 0 0 1-7-19q0-14 10-22t27-8a53 53 0 0 1 20 3 50 50 0 0 1 16 11l-14 16a46 46 0 0 0-11-8 23 23 0 0 0-11-3q-7 0-10 3t-4 9a11 11 0 0 0 2 7 25 25 0 0 0 8 6l15 8q12 6 19 14a28 28 0 0 1 6 18q0 14-11 22t-30 8Zm61-1V104h21v112Zm11-36 2-20q11 0 19-5a40 40 0 0 0 14-13 57 57 0 0 0 7-17 81 81 0 0 0 3-21h21a92 92 0 0 1-4 29 77 77 0 0 1-13 24 61 61 0 0 1-21 17 60 60 0 0 1-28 6Zm46 36-23-50 20-8 28 58Zm70 1a105 105 0 0 1-18-1 79 79 0 0 1-16-5l3-21a106 106 0 0 0 17 6 71 71 0 0 0 16 2q8 0 13-3a10 10 0 0 0 4-9q0-7-9-12l-16-7q-12-6-19-15a31 31 0 0 1-6-19q0-14 10-22t27-8a53 53 0 0 1 20 3 50 50 0 0 1 16 11l-14 16a46 46 0 0 0-11-8 23 23 0 0 0-11-3q-7 0-11 3t-4 9a11 11 0 0 0 3 7 25 25 0 0 0 8 6l15 8q12 6 18 14a28 28 0 0 1 7 18q0 14-11 22t-31 8Z" fill="#015270"/></g></g></svg>